<?xml version="1.0" standalone="no"?><!DOCTYPE svg PUBLIC "-//W3C//DTD SVG 1.1//EN" "http://www.w3.org/Graphics/SVG/1.1/DTD/svg11.dtd"><svg width="600" height="580" version="1.1" xmlns="http://www.w3.org/2000/svg" xmlns:xlink="http://www.w3.org/1999/xlink"><path stroke-width="1" stroke="#3e448c" fill="#4d85ae" d="M451.4923168151463,559.683955984347L456.01999112156955,552.6974731814882L461.93390837143215,548.9046465013932L468.50801623664665,545.8376646327606L469.5156479918678,544.215790996996L479.079532946379,539.5107566667407L489.4537642299156,544.3122459418357L494.08596309750465,551.0088209565442L486.6710881349254,553.9952904239487L482.1981112691101,555.1682386542934L479.04918710604215,553.5911157567739L473.54280325271793,555.3582222689483L467.70366414768887,557.6766469006639L460.9669625206625,560.513478122243L451.4291525104427,561.6014195358989ZM436.26567326956865,561.7989451842373L438.5885911514388,558.7004546261908L447.2200720635665,558.417176987728L443.46288238972284,565.5000000000009L435.2780472905697,565.451830553367ZM423.29406283710523,559.1934116874834L426.5857997697649,555.2558540927107L430.89086298571056,557.926819680574L429.83332918193264,562.6047415282342L423.936720300263,562.9192016899517ZM212.41160218454115,14.50096155552228L212.14463371756756,16.5674377877167L213.81590277618125,20.06720919713507L217.41686756828403,25.156843977628796L217.52289068946538,29.055745022936208L218.73170412692798,34.459970129134945L222.73713026753467,39.73774776918617L222.8292284406698,39.7416682850926L226.61060819867362,39.90263580051442L251.97208806512026,41.37245401515611L258.99769831014146,41.71713202600813L266.1338167215263,42.06721713410616L278.1613724847866,42.65723437577526L281.25139707262497,42.83962853339244L286.9683347748678,43.177070453140914L300.9409832984793,44.00174829162506L306.72872179493606,44.356795682418124L316.6210866973606,44.96360570456227L324.99451998235963,45.47720839397107L328.817235239444,45.74352134507626L335.651880681522,46.219642180993105L339.2760875424801,46.47210381885452L352.21827100606606,47.37359239869056L352.6069868498753,47.40066693282597L371.6476904219289,48.66824803730651L385.7177604466551,49.63686787685174L393.6245086666413,50.181139958468975L402.9315217776548,50.82175624194406L402.94736421050675,50.82284665993029L405.9892078550738,51.114181004833426L421.0030642835918,52.55199453494106L420.1923433145621,56.343497078474684L422.32494407431295,60.377251359418096L421.62414248250843,64.71000206820327L423.8925877077718,69.57177944006071L426.64521767442693,70.02613387297833L430.2864937309787,70.2529546272558L433.562796868081,69.59281506335765L434.32833487999324,69.43856005681027L434.23504951895393,66.56271756952037L435.2674824424512,62.72790237869776L436.0055981786718,55.44216781701607L436.2043821648858,49.305318630662896L433.6717408086806,44.616612822245315L434.2483117751017,41.40809176000221L434.9351767587523,36.326663467189064L437.7580891901898,33.23969837524692L441.639734273419,29.631305369918664L444.42769733262503,30.157412731326986L444.69926933149145,30.208658426516195L447.22659079963796,32.65688446239301L451.7283400177739,32.89587620966449L455.1120136074569,34.308317939239714L457.4457211214476,36.417249616791196L462.237741414815,36.85238081956413L464.86097072402936,38.163566558357616L470.2230432477463,39.384343128282126L472.72781138764185,38.70782157415215L474.3060198692174,38.744690874410026L479.033527153867,39.89705824554085L480.28512447980575,40.91612069340454L479.1103283547236,49.37147789042774L479.78730284226185,56.19084674073065L480.1701296563888,57.615991400709845L480.39077296098276,58.43726841885564L481.5297535016671,59.71545344837523L482.60886656968523,72.0525435583072L484.2595957635385,79.61184861658285L490.6600301153503,108.85873772439254L492.0471721947979,111.63094800686531L493.0760085742568,120.13139195686381L496.5452801703095,129.97222835194498L500.0540532919704,139.9137688929277L504.59571277897066,150.95744567113752L508.8133613735199,161.20075900074653L514.8452152966966,174.92931277561593L519.2585494738469,182.1070381644663L528.2689412861937,198.29346008051016L532.7283059765678,205.48437018315008L538.7388556267952,215.1674633720795L543.4895905917037,222.0117200305658L547.8946077607625,233.80220798674827L543.1951984764255,237.9431347137288L541.7669958525203,244.27653007441177L541.96630433474,250.97800328757285L543.0332041386209,257.7588499073245L546.2026585739195,268.73406815829367L553.6953126063872,284.70515829175656L558.4893521507538,294.909414211224L562.4409799867626,306.9656262049921L563.5101567311776,310.36389632623286L568.2322400992589,325.35771559870454L572.4015073536802,335.2065811265916L575.7467693029466,343.10145838206563L576.8534558752726,347.96740606218145L578.4893589174908,351.2598468676083L581.014010719302,359.8275172884246L583.7724573283276,369.17973917433255L584.81400353142,376.41723103869435L584.83216404413,376.54337594631625L584.5592013370888,384.55364600578923L584.589172537424,389.89336779507767L584.3269245345036,393.4962937782652L583.5040201934671,398.27930409656847L583.4652525249066,398.50457676319184L581.5537313690184,414.28645173491964L580.8276370395315,420.27447747764495L579.0935780855252,433.32345418084265L579.0292900915038,433.80689232135387L578.6207852908992,443.15198122867105L578.6070388660282,443.46629382491005L578.4045404205463,448.0952629529895L579.0002929551811,456.2151859609305L577.9623153596212,460.83315817229504L577.8208359900091,461.32347727810725L577.5636920723073,462.21458784617516L575.6271092856141,468.92307453565695L573.9828892353034,467.2959256289505L570.0723219437514,463.35023471391355L567.3170694970668,469.51469126071333L564.6507565873735,473.260750283559L563.7176032649804,479.41897188963435L561.9844436776784,485.5242567529765L563.9841970919488,491.8224606836677L569.6420853629606,489.1470756666781L574.049725012047,480.91444539493864L575.0138985267849,486.63934635993496L569.8262914374827,496.18720807949535L569.3644021918681,497.0368805740525L560.4009153080433,511.41663280609987L550.0175428084049,524.1483973699351L538.4465614955407,535.1539678921508L514.8400452646383,548.2169607323438L504.5653183662107,551.3827542225231L501.167708168372,548.0004514254665L509.39555194000513,542.8755591658798L523.739543635751,536.3412937857299L541.4676584891859,523.5141895608981L548.5332191118741,516.1976365766434L549.7364129492744,511.1313777675023L550.1199693855469,507.5601237220942L546.5985781303289,507.01597066814725L538.4957891920885,508.4470526182579L533.9944895419585,511.47441128426567L531.2117385189676,511.89565441252216L526.3873493292385,508.70025729308395L522.9378859554099,509.40557628683837L521.6423838203955,509.6704575847916L518.6104971946297,512.4038709250535L511.5916916444621,513.7196521979956L506.32717537783265,514.2663404905888L501.65024449374687,508.9518824577367L499.505130757856,503.7461273951569L501.2137888888856,496.5417321035859L501.3140425540023,490.34023329282945L496.71076589473614,482.26084381770806L494.2892427637689,474.4454254174598L490.5891482265606,468.2526936177878L485.63753129141423,465.7606469729453L483.5527345961964,459.6696524569304L479.2028066063831,457.47455744086074L476.92692641040594,456.3258901305994L466.24998600349954,449.91073640260583L464.33917526893765,451.27988059643235L461.9118046111862,453.01887827586097L457.83175018174643,448.80874779108285L455.5556623003986,441.04492738243584L451.7066108975323,428.37586572487567L449.03003285172235,413.7180553680339L448.8854032308309,413.49567376966866L443.1065248177538,404.60591816915985L440.633900790217,403.2920761234218L436.3403764864006,403.31718306375205L431.7621257794135,405.8274633001706L427.89164496830836,404.63763227037225L423.8420862352086,401.2917633303432L418.9958929972372,390.8363140544402L417.57555781342035,382.6706995618565L417.55075664514334,377.77647273891125L416.3624526777394,375.0512123066751L413.83470244375985,369.2514653210642L409.7193275414802,361.88309585914976L403.4649668402726,350.6739909626235L396.9427840796361,335.9384408297701L391.63323608450446,327.9708672452539L388.8167212410899,324.5197795986833L385.5460852967126,320.51065313191384L381.7100713659911,312.582530696116L383.44577850532096,312.76444956175146L388.62570105900977,313.2560267053914L393.57776756216026,307.0941375528423L395.95611664978605,302.9143561389633L398.8500014128758,297.8260088285638L401.5943892994401,296.3519558884432L405.01545196154075,292.5347096363075L403.7562119795166,288.98222085010275L400.6794434812509,287.9172404177175L395.87678341176434,285.7264884237238L394.9450968322544,286.7538206383938L393.43615364058314,288.41742636008894L391.31479356386626,290.8574279819936L390.72346029837263,291.5374679616539L390.5513506804564,295.5306972696253L388.4907557295073,298.2729348612802L386.62982080153597,301.275159138057L384.5573353977006,304.617528419476L382.45493062228707,305.66088147649543L382.05099376978796,300.1178732244016L381.469852195316,295.6492095200256L378.172945230599,290.54359092581535L373.9543489276166,285.2316646113736L374.3772425643265,278.20676475567006L375.3302518069413,271.16739342766186L373.81437769023887,264.94298715663945L373.62803748398346,264.17755315616523L372.99085305924564,258.2531168925734L372.9729419726873,258.0865267998306L380.13013954039616,252.11678907542864L382.57601427163536,245.24770897572944L385.125589356031,237.1499977037588L385.6229604233249,236.0273957499603L387.55160816704756,231.67297747131533L388.17808118202447,226.5242609065076L387.3197809324656,219.90308183933485L387.27764126409056,213.76430638753072L387.2768471879872,213.64858741969283L384.00616502356297,211.49038830107884L383.95011887893816,204.70715675404472L382.66705179264954,200.44185291101303L385.7676473951806,195.69674612267318L383.14539214997603,191.59623798805433L380.76921479356133,187.53434482787634L380.4841743443385,187.0469648847361L380.45974781606674,182.9702224175444L375.66772752269935,179.13710873068976L377.5246681673798,177.79911379478563L375.41192332784976,174.0314503370637L367.9165756923758,173.132037630166L362.74377129876666,172.3453838025439L361.23741876999156,176.86706268549324L358.4681547871505,176.39804085468768L356.5365858536388,170.72585875287677L356.8551797131877,166.34460953572489L354.40181218186353,164.5484140349704L350.0226592905474,162.81294720476672L349.7488582580445,162.7044279226502L349.3036360770857,158.03517478008462L347.285974870616,153.75929590453416L344.43399037485324,150.4256665521807L340.37004546559365,150.01743406934065L339.3899122866778,147.3552386908159L332.3673603364696,142.6695988486549L332.1039134855355,136.44351840960917L331.425177204037,130.36679293121688L331.382132053498,129.9812662283848L326.22214034803164,127.56584526761526L322.1701839189054,125.45069942591999L318.7684526810208,119.9057153128374L315.6229002779901,113.89600632765041L311.5623271287677,108.57060967624284L303.35696175738576,103.51456640245488L292.65866687024027,98.14248784866368L288.10301890816936,93.79633680351208L287.4731996444907,93.19530700678342L282.8071333205253,92.74764189309553L281.82242414538086,92.94580880297053L278.1691649968725,93.68096557078479L274.1035716715951,95.18886034477737L271.9410746395115,94.1853873945297L265.8181831953216,96.57321590845459L260.09458306757915,100.77382987705641L261.94350641617075,104.7924127390229L261.96524803578177,104.91796113152805L262.51992752659135,108.12037408094966L261.3720305538063,110.44642433498302L255.76981378741493,109.91192664344089L252.28648595662253,108.05095201907989L247.37495550192307,109.2985617644058L244.2604232912372,111.22287353355387L245.19432589363714,117.9307500140967L242.27011080507145,120.016741360786L235.63029108312458,122.00063828851125L229.311238132751,128.11365613775888L221.83514699348962,131.25554665874688L209.22154254901398,137.18274268597952L200.8119234473579,132.3649788050334L195.4834086971132,130.06543092431957L193.13862180990145,129.0533329287059L186.17811024438288,130.9081517754371L182.41560068248054,122.36806936453513L181.38773836703422,115.12825780693402L183.77179749758488,108.3600185393334L183.4338697238136,108.0863233986961L180.68281573518288,105.85786022423645L176.05166585960706,104.87725556325586L169.74699908539333,99.23541577276183L167.55378157296764,96.64723237516864L160.38826699716537,93.13632983099296L151.8158293496972,86.08125095567084L137.96287126598418,78.22644395356338L137.67556688821878,78.06346200843154L130.9300986850958,75.21830834487446L120.99479563044679,71.7447667194956L107.89598693655626,68.8001131555402L106.7948155523045,68.55251981724132L90.24494351199064,67.16682176150698L77.70211965620365,68.19101737855544L73.93521571435213,68.49858319194573L68.7966721640505,69.53865089939563L51.099633684036235,73.11964847584022L45.52695268403204,73.82406835424854L42.67510391021369,74.18453635661399L38.80200061907908,73.98195058018246L31.283650087348178,75.77727922308668L23.905864485183884,77.22578107857998L28.854259516293496,71.70031396711875L30.3901336773979,66.56793004161636L35.274165555790205,63.66147972449107L31.671327563666637,61.86706368078558L29.42071520260106,57.50285384019253L30.415159629676054,53.78260763993603L32.682555862927984,49.07158077397253L32.75748386376199,44.472286139010976L29.602865172630118,41.383084360720204L23.508970864763796,37.40674593878384L22.1117884332034,34.86119424623121L15.167835955869123,26.278258673018627L18.380673703651155,18.802550401993358L17.865693553915662,14.785926759200265L17.873789804477383,14.785911295705318L23.81527653217472,14.77456330259838L30.839177186398956,14.730333085569328L39.349874161181106,14.700088572812547L50.5235353060807,14.645876855415281L50.55625582198354,14.645718103408853L68.14882592191134,14.763549476033859L75.33232321791183,14.791870714943798L78.80051739036662,14.82430073025489L86.10232688082397,14.892577289017481L95.4493675219519,14.97997724263405L108.55047886549073,15.038871957952324L110.32407424760913,15.046844943869473L123.64072445384318,15.079210164192318L135.0455112671898,15.106928629583763L145.6407880169254,15.132679559871576L156.42420111301908,14.97298451087363L169.17825237518446,14.820301260022461L175.28458407547714,14.74719921723954L176.01163265753166,14.738495301387047L187.62392094848474,14.5994767016482L201.66243118482998,14.50000000000091L210.25472475252081,14.5040210496295Z" /></svg>